<svg
                      width="21"
                      height="20"
                      viewBox="0 0 21 20"
                      fill="none"
                      xmlns="http://www.w3.org/2000/svg"
                    >
                      <path
                        d="M10.5 20C9.11667 20 7.81667 19.7373 6.6 19.212C5.38333 18.6867 4.325 17.9743 3.425 17.075C2.525 16.175 1.81267 15.1167 1.288 13.9C0.763333 12.6833 0.500667 11.3833 0.5 10C0.5 8.61667 0.762667 7.31667 1.288 6.1C1.81333 4.88333 2.52567 3.825 3.425 2.925C4.325 2.025 5.38333 1.31267 6.6 0.788C7.81667 0.263333 9.11667 0.000666667 10.5 0C11.8833 0 13.1833 0.262667 14.4 0.788C15.6167 1.31333 16.675 2.02567 17.575 2.925C18.475 3.825 19.1877 4.88333 19.713 6.1C20.2383 7.31667 20.5007 8.61667 20.5 10C20.5 11.3833 20.2373 12.6833 19.712 13.9C19.1867 15.1167 18.4743 16.175 17.575 17.075C16.675 17.975 15.6167 18.6877 14.4 19.213C13.1833 19.7383 11.8833 20.0007 10.5 20ZM10.5 18C12.7333 18 14.625 17.225 16.175 15.675C17.725 14.125 18.5 12.2333 18.5 10C18.5 9.88333 18.496 9.76233 18.488 9.637C18.48 9.51167 18.4757 9.40767 18.475 9.325C18.3917 9.80833 18.1667 10.2083 17.8 10.525C17.4333 10.8417 17 11 16.5 11H14.5C13.95 11 13.4793 10.8043 13.088 10.413C12.6967 10.0217 12.5007 9.55067 12.5 9V8H8.5V6C8.5 5.45 8.696 4.97933 9.088 4.588C9.48 4.19667 9.95067 4.00067 10.5 4H11.5C11.5 3.61667 11.6043 3.27933 11.813 2.988C12.0217 2.69667 12.2757 2.459 12.575 2.275C12.2417 2.19167 11.9043 2.125 11.563 2.075C11.2217 2.025 10.8673 2 10.5 2C8.26667 2 6.375 2.775 4.825 4.325C3.275 5.875 2.5 7.76667 2.5 10H7.5C8.6 10 9.54167 10.3917 10.325 11.175C11.1083 11.9583 11.5 12.9 11.5 14V15H8.5V17.75C8.83333 17.8333 9.16267 17.896 9.488 17.938C9.81333 17.98 10.1507 18.0007 10.5 18Z"
                        fill="white"
                      />
                    </svg>