
            <svg width="25" height="25" viewBox="0 0 25 25" fill="none" xmlns="http://www.w3.org/2000/svg">
              <path fillRule="evenodd" clipRule="evenodd" d="M8.21761 12.0323C8.50936 11.7383 8.98423 11.7364 9.27826 12.0282L12.5 15.2249L15.7217 12.0282C16.0158 11.7364 16.4906 11.7383 16.7824 12.0323C17.0741 12.3263 17.0723 12.8012 16.7783 13.0929L13.0283 16.8139C12.7358 17.104 12.2642 17.104 11.9717 16.8139L8.22174 13.0929C7.92771 12.8012 7.92586 12.3263 8.21761 12.0323Z" fill="#1D405C" />
              <path fillRule="evenodd" clipRule="evenodd" d="M12.5 7.46875C12.9142 7.46875 13.25 7.80454 13.25 8.21875V15.7642C13.25 16.1784 12.9142 16.5142 12.5 16.5142C12.0858 16.5142 11.75 16.1784 11.75 15.7642V8.21875C11.75 7.80454 12.0858 7.46875 12.5 7.46875Z" fill="#1D405C" />
              <path fillRule="evenodd" clipRule="evenodd" d="M2.75 12.25C2.75 6.86704 7.11704 2.5 12.5 2.5C17.883 2.5 22.25 6.86704 22.25 12.25C22.25 17.633 17.883 22 12.5 22C7.11704 22 2.75 17.633 2.75 12.25ZM12.5 4C7.94546 4 4.25 7.69546 4.25 12.25C4.25 16.8045 7.94546 20.5 12.5 20.5C17.0545 20.5 20.75 16.8045 20.75 12.25C20.75 7.69546 17.0545 4 12.5 4Z" fill="#1D405C" />
            </svg>