<svg width="26" height="26" viewBox="0 0 26 26" fill="none" xmlns="http://www.w3.org/2000/svg">
<path d="M20.5833 3.30859H5.41667C4.21417 3.30859 3.25 4.23568 3.25 5.39193V19.9753C3.25 20.5278 3.47827 21.0577 3.8846 21.4484C4.29093 21.8391 4.84203 22.0586 5.41667 22.0586H20.5833C21.7858 22.0586 22.75 21.1315 22.75 19.9753V5.39193C22.75 4.83939 22.5217 4.30949 22.1154 3.91879C21.7091 3.52809 21.158 3.30859 20.5833 3.30859ZM20.5833 19.9753H5.41667V5.39193H20.5833V19.9753ZM18.4167 16.0378C18.4167 17.0586 17.55 17.8919 16.4883 17.8919C15.4267 17.8919 14.5708 17.0586 14.5708 16.0378C14.5708 15.0169 15.4267 14.194 16.4883 14.194C17.55 14.194 18.4167 15.0169 18.4167 16.0378ZM9.20833 17.9232L7.58333 16.3607L16.8242 7.47526L18.4492 9.03776L9.20833 17.9232ZM7.6375 9.38151C7.6375 8.35026 8.49333 7.52734 9.56583 7.52734C10.6275 7.52734 11.4833 8.35026 11.4833 9.38151C11.4833 10.4023 10.6275 11.2253 9.56583 11.2253C8.49333 11.2253 7.6375 10.4023 7.6375 9.38151Z" fill="#2C2C2C"/>
</svg>
