<svg width="42" height="25" viewBox="0 0 42 25" fill="none" xmlns="http://www.w3.org/2000/svg">
<path d="M2.87808 8.53851C2.69029 8.53851 2.51973 8.46103 2.39544 8.33782C2.27169 8.21299 2.1942 8.04135 2.1942 7.85464C2.1942 7.66686 2.27169 7.49629 2.3949 7.372C2.51973 7.24825 2.69029 7.17077 2.87808 7.17077H6.17638C6.36309 7.17077 6.53473 7.24825 6.65902 7.37146C6.78277 7.49629 6.86025 7.66686 6.86025 7.85464C6.86025 8.04135 6.78277 8.21299 6.65956 8.33728C6.53473 8.46103 6.36309 8.53851 6.17638 8.53851H2.87808ZM0.683873 18.5739C0.496091 18.5739 0.325526 18.4964 0.201234 18.3732C0.0774805 18.2483 0 18.0778 0 17.89C0 17.7033 0.0774805 17.5316 0.200696 17.4073C0.325526 17.2836 0.496091 17.2061 0.683873 17.2061H0.93407C1.12078 17.2061 1.29242 17.2836 1.41671 17.4068C1.54046 17.5316 1.61794 17.7033 1.61794 17.89C1.61794 18.0778 1.54046 18.2483 1.41725 18.3726C1.29242 18.4964 1.12078 18.5739 0.93407 18.5739H0.683873ZM2.53211 18.5739C2.34432 18.5739 2.17376 18.4964 2.04947 18.3732C1.92571 18.2483 1.84823 18.0778 1.84823 17.89C1.84823 17.7033 1.92571 17.5316 2.04893 17.4073C2.17376 17.2836 2.34432 17.2061 2.53211 17.2061H7.12498C7.31168 17.2061 7.48333 17.2836 7.60762 17.4068C7.73137 17.5316 7.80885 17.7033 7.80885 17.89C7.80885 18.0778 7.73137 18.2483 7.60815 18.3726C7.48332 18.4964 7.31168 18.5739 7.12498 18.5739H2.53211ZM8.72248 18.5739C8.53469 18.5739 8.36413 18.4964 8.23984 18.3732C8.11608 18.2483 8.0386 18.0778 8.0386 17.89C8.0386 17.7033 8.11608 17.5316 8.2393 17.4073C8.36413 17.2836 8.53469 17.2061 8.72248 17.2061H13.6845V15.2287H5.82718C5.6394 15.2287 5.46883 15.1513 5.34454 15.028C5.22079 14.9032 5.14331 14.7327 5.14331 14.5449C5.14331 14.3582 5.22079 14.1865 5.344 14.0622C5.46883 13.9385 5.6394 13.861 5.82718 13.861H13.6845V11.8836H12.1182C11.9304 11.8836 11.7598 11.8061 11.6355 11.6829C11.5118 11.5581 11.4343 11.3865 11.4343 11.1998C11.4343 11.012 11.5118 10.8414 11.635 10.7171C11.7598 10.5934 11.9304 10.5159 12.1182 10.5159H13.6839V8.53851H7.77388C7.58609 8.53851 7.41553 8.46103 7.29124 8.33782C7.16748 8.21299 7.09 8.04135 7.09 7.85464C7.09 7.66686 7.16748 7.49629 7.2907 7.372C7.41553 7.24825 7.58609 7.17077 7.77388 7.17077H13.685L13.6845 4.50953C13.6834 4.34004 13.7469 4.184 13.8496 4.06402C13.9556 3.94295 14.1031 3.8574 14.2666 3.83319L27.4103 0.652721C27.4668 0.639269 27.5217 0.632812 27.5701 0.632812C27.6229 0.632812 27.6767 0.639807 27.7283 0.651644L40.9323 3.84772C41.0857 3.8843 41.2159 3.97255 41.3068 4.08769C41.3993 4.20553 41.4531 4.35403 41.4537 4.50845L41.4553 20.7568C41.4564 20.9262 41.3929 21.0823 41.2901 21.2023C41.1841 21.3233 41.0367 21.4089 40.8731 21.4331C38.0408 22.1186 29.9204 24.5038 27.611 24.6319C27.5427 24.6351 27.504 24.6297 27.4507 24.6216C23.5804 24.026 18.1842 22.3812 14.2074 21.4186C14.0541 21.382 13.9239 21.2937 13.833 21.1786C13.7404 21.0608 13.6866 20.9123 13.6861 20.7578L13.685 18.5739H8.72248ZM2.87808 15.2287C2.69029 15.2287 2.51973 15.1513 2.39544 15.028C2.27169 14.9032 2.1942 14.7327 2.1942 14.5449C2.1942 14.3582 2.27169 14.1865 2.3949 14.0622C2.51973 13.9385 2.69029 13.861 2.87808 13.861H4.22968C4.41639 13.861 4.58803 13.9385 4.71232 14.0617C4.83607 14.1865 4.91356 14.3582 4.91356 14.5449C4.91356 14.7327 4.83607 14.9032 4.71286 15.0275C4.58803 15.1513 4.41639 15.2287 4.22968 15.2287H2.87808ZM0.683873 11.8836C0.496091 11.8836 0.325526 11.8061 0.201234 11.6829C0.0774805 11.5581 0 11.3865 0 11.1998C0 11.012 0.0774805 10.8414 0.200696 10.7171C0.325526 10.5934 0.496091 10.5159 0.683873 10.5159H10.5201C10.7068 10.5159 10.8785 10.5934 11.0028 10.7166C11.1265 10.8414 11.204 11.012 11.204 11.1998C11.204 11.3865 11.1265 11.5581 11.0033 11.6824C10.8785 11.8061 10.7068 11.8836 10.5201 11.8836H0.683873ZM31.2564 14.6692C31.0734 14.7133 30.8894 14.6788 30.7415 14.5885C30.5935 14.4986 30.4784 14.3501 30.4348 14.1672C30.3907 13.9842 30.4251 13.8002 30.5155 13.6522C30.6053 13.5043 30.7538 13.3891 30.9368 13.3455L37.2423 11.8191C37.4252 11.7749 37.6093 11.8094 37.7572 11.8998C37.9052 11.9896 38.0203 12.1381 38.0639 12.3211C38.108 12.504 38.0736 12.688 37.9832 12.836C37.8933 12.984 37.7448 13.0991 37.5619 13.1427L31.2564 14.6692ZM30.5542 12.7946C30.3718 12.8387 30.1873 12.8042 30.0393 12.7139C29.8913 12.624 29.7762 12.4755 29.7326 12.2926C29.6885 12.1096 29.7229 11.9256 29.8133 11.7776C29.9032 11.6297 30.0511 11.5145 30.2346 11.4709L37.945 9.60495C38.1279 9.56083 38.312 9.59526 38.4599 9.68566C38.6079 9.77551 38.723 9.92402 38.7666 10.107C38.8107 10.2899 38.7763 10.4739 38.6859 10.6219C38.5961 10.7698 38.4475 10.885 38.2646 10.9286L30.5542 12.7946ZM34.8253 3.77077L25.0284 6.38951L27.5701 7.00451L37.8783 4.50953L34.8253 3.77077ZM22.9488 7.28753C22.9488 8.20922 23.1005 10.4115 22.9267 11.1809C22.8831 11.3644 22.768 11.5129 22.62 11.6028C22.472 11.6932 22.288 11.7276 22.1051 11.6835L19.474 11.0464C19.3088 11.0217 19.1614 10.9366 19.0581 10.8161C18.9537 10.6951 18.8918 10.5385 18.8918 10.3706V6.30503L15.0511 5.3758V20.2219L26.8863 23.0855V8.23989L22.9488 7.28753ZM19.5627 5.06642L29.3161 2.43746L27.5701 2.01509L17.262 4.50953L19.5627 5.06642ZM28.254 8.23989V23.0855L40.0886 20.2219V5.3758L28.254 8.23989Z" fill="#1D405C"/>
</svg>
