<svg width="23" height="25" viewBox="0 0 23 25" fill="none" xmlns="http://www.w3.org/2000/svg">
<path d="M22.7041 1.19552C22.6856 1.02592 22.6019 0.873656 22.4686 0.766725C22.203 0.553929 21.7827 0.600595 21.5702 0.865122L9.15449 16.3482L5.01431 12.6206C4.76152 12.3937 4.33833 12.4166 4.11167 12.6683C3.87594 12.9302 3.89754 13.3352 4.15967 13.5712L8.61503 17.5815C8.77663 17.7279 8.98596 17.8082 9.20355 17.8082C9.22702 17.8082 9.25128 17.8071 9.27262 17.8055C9.51155 17.7863 9.73554 17.6666 9.887 17.4783L22.5675 1.66537C22.6742 1.53204 22.723 1.36538 22.7041 1.19552Z" fill="#1D405C"/>
<path d="M21.1723 8.31565C20.8201 8.31565 20.5331 8.60258 20.5331 8.95511V21.9716C20.5331 22.7329 19.9137 23.3529 19.1521 23.3529H2.65914C1.89782 23.3529 1.2781 22.7335 1.2781 21.9716V5.47945C1.2781 4.71814 1.89756 4.09815 2.65914 4.09815H14.3794C14.7319 4.09815 15.0183 3.81176 15.0183 3.45923C15.0183 3.10671 14.7319 2.82031 14.3794 2.82031H2.65941C1.19304 2.82031 0 4.01335 0 5.47972V21.9724C0 23.4385 1.19304 24.6318 2.65941 24.6318H19.1524C20.6187 24.6318 21.812 23.4385 21.812 21.9724V8.95537C21.8118 8.60285 21.5257 8.31565 21.1723 8.31565Z" fill="#1D405C"/>
</svg>
