<svg width="24" height="24" viewBox="0 0 24 24" fill="none" xmlns="http://www.w3.org/2000/svg">
<g clip-path="url(#clip0_2409_2895)">
<path d="M17.5 20C18.8807 20 20 18.8807 20 17.5C20 16.1193 18.8807 15 17.5 15C16.1193 15 15 16.1193 15 17.5C15 18.8807 16.1193 20 17.5 20Z" stroke="#212121" stroke-opacity="0.6" stroke-width="2" stroke-linecap="round" stroke-linejoin="round"/>
<path d="M6 8V19C6.00019 19.2107 6.06691 19.4159 6.19063 19.5864C6.31436 19.7569 6.48877 19.884 6.68899 19.9495C6.8892 20.015 7.105 20.0156 7.30558 19.9513C7.50617 19.8869 7.6813 19.7608 7.806 19.591L11.5 14.5V14.555" stroke="#212121" stroke-opacity="0.6" stroke-width="2" stroke-linecap="round" stroke-linejoin="round"/>
<path d="M6 8H21L17.5 15L10.4 14.253C9.67571 14.1769 8.98595 13.9045 8.40511 13.4651C7.82427 13.0258 7.37439 12.4362 7.104 11.76L4.251 4.63C4.17702 4.44425 4.04906 4.28494 3.88364 4.17264C3.71822 4.06034 3.52294 4.00021 3.323 4H2" stroke="#212121" stroke-opacity="0.6" stroke-width="2" stroke-linecap="round" stroke-linejoin="round"/>
</g>
<defs>
<clipPath id="clip0_2409_2895">
<rect width="24" height="24" fill="white"/>
</clipPath>
</defs>
</svg>
