<svg width="24" height="24" viewBox="0 0 24 24" fill="none" xmlns="http://www.w3.org/2000/svg">
<path d="M19.612 5.38797C19.1722 4.94794 18.65 4.59888 18.0752 4.36073C17.5005 4.12258 16.8844 4 16.2623 4C15.6401 4 15.0241 4.12258 14.4493 4.36073C13.8746 4.59888 13.3524 4.94794 12.9126 5.38797L11.9998 6.30075L11.087 5.38797C10.1986 4.49956 8.99364 4.00046 7.73725 4.00046C6.48085 4.00046 5.27591 4.49956 4.38751 5.38797C3.4991 6.27637 3 7.48131 3 8.73771C3 9.9941 3.4991 11.199 4.38751 12.0874L5.30029 13.0002L11.9998 19.6997L18.6992 13.0002L19.612 12.0874C20.0521 11.6476 20.4011 11.1254 20.6393 10.5507C20.8774 9.9759 21 9.35985 21 8.73771C21 8.11556 20.8774 7.49951 20.6393 6.92475C20.4011 6.34999 20.0521 5.82779 19.612 5.38797Z" stroke="#7A7A7A" stroke-width="2" stroke-linecap="round" stroke-linejoin="round"/>
</svg>
