<svg width="21" height="21" viewBox="0 0 21 21" fill="none" xmlns="http://www.w3.org/2000/svg">
<path d="M16.944 15.6217C17.1564 15.622 17.3607 15.7033 17.5152 15.8491C17.6696 15.9949 17.7625 16.1942 17.775 16.4062C17.7874 16.6183 17.7184 16.8271 17.5821 16.9899C17.4458 17.1528 17.2524 17.2575 17.0415 17.2826L16.944 17.2884H3.61068C3.39828 17.2882 3.19398 17.2068 3.03954 17.061C2.88509 16.9152 2.79215 16.716 2.7797 16.5039C2.76725 16.2919 2.83624 16.0831 2.97256 15.9202C3.10889 15.7573 3.30226 15.6527 3.51318 15.6276L3.61068 15.6217H16.944ZM16.944 9.78841C17.165 9.78841 17.377 9.87621 17.5333 10.0325C17.6895 10.1888 17.7773 10.4007 17.7773 10.6217C17.7773 10.8428 17.6895 11.0547 17.5333 11.211C17.377 11.3673 17.165 11.4551 16.944 11.4551H3.61068C3.38966 11.4551 3.1777 11.3673 3.02142 11.211C2.86514 11.0547 2.77734 10.8428 2.77734 10.6217C2.77734 10.4007 2.86514 10.1888 3.02142 10.0325C3.1777 9.87621 3.38966 9.78841 3.61068 9.78841H16.944ZM16.944 3.95508C17.165 3.95508 17.377 4.04288 17.5333 4.19916C17.6895 4.35544 17.7773 4.5674 17.7773 4.78841C17.7773 5.00943 17.6895 5.22139 17.5333 5.37767C17.377 5.53395 17.165 5.62174 16.944 5.62174H3.61068C3.38966 5.62174 3.1777 5.53395 3.02142 5.37767C2.86514 5.22139 2.77734 5.00943 2.77734 4.78841C2.77734 4.5674 2.86514 4.35544 3.02142 4.19916C3.1777 4.04288 3.38966 3.95508 3.61068 3.95508H16.944Z" fill="#212121" fill-opacity="0.6"/>
</svg>
