<svg width="21" height="22" viewBox="0 0 21 22" fill="none" xmlns="http://www.w3.org/2000/svg">
<g clip-path="url(#clip0_4009_5820)">
<g clip-path="url(#clip1_4009_5820)">
<g clip-path="url(#clip2_4009_5820)">
<path fill-rule="evenodd" clip-rule="evenodd" d="M10.1228 0.195728C12.5879 0.025178 15.0278 0.773661 16.9865 2.29793C18.9448 3.82186 20.2874 6.01607 20.7681 8.46854C21.2236 10.7925 20.8764 13.2017 19.7906 15.2919L20.9343 19.6133C21.0206 19.9391 20.9254 20.286 20.6849 20.5223C20.4446 20.7584 20.0959 20.8474 19.7717 20.7554L15.6012 19.5715C13.5528 20.6845 11.1852 21.0526 8.89413 20.6049C6.46827 20.1306 4.29879 18.775 2.78881 16.7958C1.27914 14.8172 0.530898 12.3496 0.680663 9.854C0.83043 7.35846 1.86831 5.00083 3.60448 3.22247C5.34102 1.44373 7.6577 0.366273 10.1228 0.195728ZM15.8346 3.77815C14.2377 2.53551 12.2534 1.92842 10.2522 2.06688C8.25087 2.20535 6.36452 3.08032 4.94657 4.53273C3.52824 5.98552 2.67593 7.91671 2.55292 9.96645C2.42991 12.0161 3.04498 14.0395 4.27999 15.6582C5.5147 17.2766 7.28356 18.3789 9.25395 18.764C11.2241 19.1492 13.2656 18.7919 14.9979 17.7568C15.2198 17.6243 15.4865 17.5892 15.735 17.6597L18.6998 18.5014L17.8821 15.4117C17.8193 15.1743 17.852 14.9218 17.9733 14.7083C18.9823 12.933 19.3221 10.8428 18.9275 8.82929C18.5329 6.8159 17.4318 5.02113 15.8346 3.77815Z" fill="#2C3B29"/>
</g>
</g>
</g>
<defs>
<clipPath id="clip0_4009_5820">
<rect width="21" height="21" fill="white" transform="translate(0 0.0585938)"/>
</clipPath>
<clipPath id="clip1_4009_5820">
<rect width="21" height="21" fill="white" transform="translate(0 0.0585938)"/>
</clipPath>
<clipPath id="clip2_4009_5820">
<rect width="21" height="21" fill="white" transform="translate(0 0.0585938)"/>
</clipPath>
</defs>
</svg>
