<svg width="24" height="25" viewBox="0 0 24 25" fill="none" xmlns="http://www.w3.org/2000/svg">
<path d="M0.375001 13.0294C0.474456 13.0294 0.569837 12.9899 0.640162 12.9196C0.710487 12.8493 0.749998 12.7539 0.750003 12.6544V12.633C0.750003 12.3951 0.757503 12.1545 0.772342 11.918C0.778558 11.8187 0.745087 11.721 0.679294 11.6465C0.6135 11.5719 0.520772 11.5265 0.42151 11.5203C0.322248 11.514 0.224582 11.5475 0.149997 11.6133C0.0754125 11.6791 0.0300192 11.7718 0.0238032 11.8711C0.00796503 12.1232 0 12.3796 0 12.633V12.6544C4.97238e-06 12.7539 0.0395155 12.8493 0.109841 12.9196C0.180166 12.9899 0.275546 13.0294 0.375001 13.0294Z" fill="#1D405C"/>
<path d="M0.967871 14.8486C0.920172 14.6098 0.879706 14.3657 0.847662 14.1227C0.834623 14.0241 0.782947 13.9348 0.704001 13.8742C0.625056 13.8137 0.525308 13.7871 0.426701 13.8001C0.328095 13.8132 0.238706 13.8648 0.178201 13.9438C0.117695 14.0227 0.091029 14.1225 0.104068 14.2211C0.138401 14.4802 0.181523 14.7407 0.232333 14.9954C0.254642 15.0914 0.31269 15.1752 0.394658 15.2299C0.476626 15.2846 0.576349 15.306 0.673523 15.2897C0.721815 15.28 0.767736 15.261 0.808665 15.2336C0.849594 15.2062 0.884728 15.1711 0.912061 15.1301C0.939394 15.0891 0.958391 15.0432 0.967967 14.9949C0.977543 14.9466 0.97751 14.8969 0.967871 14.8486Z" fill="#1D405C"/>
<path d="M2.26284 18.2727C2.23812 18.2301 2.20525 18.1928 2.16612 18.1629C2.12698 18.133 2.08235 18.1111 2.03475 18.0985C1.98716 18.0859 1.93755 18.0827 1.88875 18.0893C1.83994 18.0958 1.79291 18.1119 1.75032 18.1366C1.70773 18.1613 1.67044 18.1942 1.64055 18.2333C1.61067 18.2725 1.58878 18.3171 1.57615 18.3647C1.56352 18.4123 1.56038 18.4619 1.56692 18.5107C1.57346 18.5595 1.58955 18.6065 1.61427 18.6491C1.74528 18.8749 1.88509 19.0986 2.02983 19.3142C2.08627 19.3955 2.17215 19.4517 2.26928 19.4708C2.36642 19.4899 2.46718 19.4704 2.55022 19.4165C2.5911 19.3891 2.62619 19.3539 2.65346 19.3129C2.68073 19.2719 2.69966 19.2259 2.70917 19.1776C2.71867 19.1293 2.71857 19.0796 2.70886 19.0314C2.69915 18.9831 2.68002 18.9372 2.65257 18.8963C2.5169 18.6942 2.3857 18.4843 2.26284 18.2727Z" fill="#1D405C"/>
<path d="M1.60986 16.9562C1.5163 16.7317 1.42886 16.5007 1.34985 16.2694C1.33393 16.2228 1.30899 16.1798 1.27645 16.1428C1.24391 16.1059 1.20441 16.0757 1.1602 16.054C1.11599 16.0323 1.06794 16.0195 1.0188 16.0164C0.96965 16.0133 0.92037 16.0198 0.873769 16.0358C0.827168 16.0517 0.784159 16.0766 0.747197 16.1092C0.710235 16.1417 0.680045 16.1812 0.658349 16.2254C0.636654 16.2696 0.623878 16.3177 0.620752 16.3668C0.617625 16.416 0.624209 16.4652 0.640128 16.5118C0.724357 16.7585 0.81765 17.0051 0.917533 17.2448C0.956889 17.3357 1.03015 17.4076 1.12173 17.4453C1.21331 17.483 1.31597 17.4834 1.40789 17.4466C1.45336 17.4277 1.49465 17.4 1.5294 17.3651C1.56416 17.3302 1.5917 17.2888 1.61046 17.2433C1.62921 17.1977 1.63881 17.1489 1.63871 17.0997C1.63861 17.0504 1.6288 17.0017 1.60986 16.9562Z" fill="#1D405C"/>
<path d="M5.52039 3.35638C5.59485 3.35639 5.66761 3.33414 5.72932 3.29247C5.93284 3.15569 6.14249 3.0244 6.35252 2.90246C6.43852 2.85248 6.50115 2.77039 6.52663 2.67424C6.55211 2.57809 6.53835 2.47576 6.48838 2.38976C6.43841 2.30375 6.35632 2.24112 6.26017 2.21564C6.16402 2.19016 6.06169 2.20392 5.97568 2.25389C5.75165 2.38408 5.5279 2.52416 5.31073 2.67027C5.24403 2.71513 5.19351 2.78023 5.16662 2.85598C5.13973 2.93173 5.1379 3.01412 5.16139 3.09099C5.18488 3.16786 5.23245 3.23515 5.29709 3.28293C5.36173 3.33072 5.44001 3.35646 5.52039 3.35638Z" fill="#1D405C"/>
<path d="M5.75963 21.9943C5.55675 21.8588 5.35533 21.7145 5.16096 21.5657C5.12189 21.5357 5.07729 21.5138 5.02973 21.501C4.98216 21.4883 4.93255 21.4851 4.88374 21.4915C4.83492 21.498 4.78786 21.5139 4.74522 21.5386C4.70259 21.5632 4.66522 21.596 4.63526 21.6351C4.6053 21.6742 4.58333 21.7187 4.5706 21.7663C4.55788 21.8139 4.55464 21.8635 4.56109 21.9123C4.56753 21.9611 4.58353 22.0082 4.60816 22.0508C4.6328 22.0935 4.66559 22.1308 4.70466 22.1608C4.91194 22.3197 5.12672 22.4735 5.34306 22.618C5.42613 22.672 5.52703 22.6914 5.62422 22.6721C5.7214 22.6527 5.80716 22.5961 5.86317 22.5144C5.89053 22.4734 5.90955 22.4275 5.91915 22.3792C5.92875 22.3309 5.92874 22.2812 5.91913 22.2329C5.90951 22.1846 5.89048 22.1387 5.86311 22.0977C5.83574 22.0568 5.80058 22.0217 5.75963 21.9943Z" fill="#1D405C"/>
<path d="M3.54994 20.0607C3.48418 19.9861 3.39147 19.9406 3.2922 19.9343C3.19292 19.9281 3.09522 19.9615 3.02057 20.0272C2.94593 20.093 2.90047 20.1857 2.89418 20.285C2.8879 20.3842 2.92131 20.4819 2.98706 20.5566C3.16 20.7529 3.34073 20.9453 3.5242 21.1284C3.59529 21.1973 3.69044 21.2358 3.78945 21.2357C3.88846 21.2356 3.98353 21.1969 4.05448 21.1279C4.08927 21.093 4.11686 21.0516 4.13567 21.0061C4.15447 20.9606 4.16412 20.9118 4.16407 20.8625C4.16402 20.8133 4.15427 20.7645 4.13537 20.719C4.11647 20.6735 4.0888 20.6322 4.05393 20.5974C3.88182 20.4257 3.71226 20.2451 3.54994 20.0607Z" fill="#1D405C"/>
<path d="M2.1123 6.50511C2.15327 6.53243 2.19922 6.55141 2.24753 6.56097C2.29584 6.57053 2.34556 6.57048 2.39385 6.56082C2.44214 6.55116 2.48805 6.53209 2.52897 6.50469C2.56989 6.47728 2.60501 6.44209 2.63232 6.40111C2.76764 6.19805 2.91165 5.99645 3.06042 5.80217C3.09036 5.76307 3.1123 5.71846 3.125 5.67088C3.13769 5.6233 3.14089 5.57369 3.13442 5.52487C3.12794 5.47606 3.11191 5.42899 3.08724 5.38637C3.06258 5.34375 3.02976 5.30641 2.99066 5.27647C2.95156 5.24653 2.90695 5.22459 2.85937 5.2119C2.81179 5.1992 2.76218 5.196 2.71336 5.20248C2.66455 5.20896 2.61748 5.22499 2.57486 5.24965C2.53224 5.27432 2.4949 5.30714 2.46496 5.34623C2.30621 5.55351 2.15258 5.76849 2.00811 5.98509C1.9808 6.02608 1.96184 6.07204 1.9523 6.12036C1.94275 6.16867 1.94282 6.21839 1.9525 6.26668C1.96217 6.31497 1.98126 6.36088 2.00868 6.40179C2.0361 6.4427 2.07131 6.47781 2.1123 6.50511Z" fill="#1D405C"/>
<path d="M9.70109 1.60906C9.72599 1.60905 9.75083 1.6066 9.77525 1.60174C9.85673 1.58536 9.93917 1.57112 10.0214 1.55652C10.2122 1.28807 10.4178 1.03048 10.6373 0.78497C10.5663 0.743588 10.4836 0.726887 10.4021 0.737476C10.144 0.771717 9.88347 0.815113 9.62767 0.866383C9.53647 0.884675 9.45533 0.936207 9.39999 1.01097C9.34466 1.08573 9.31909 1.17839 9.32824 1.27096C9.33739 1.36352 9.38061 1.44937 9.44951 1.51186C9.51842 1.57434 9.60808 1.60898 9.70109 1.60906Z" fill="#1D405C"/>
<path d="M22.3822 8.29394C22.4763 8.51898 22.5642 8.74987 22.6434 8.9804C22.6592 9.02722 22.6841 9.07045 22.7166 9.10762C22.7492 9.14478 22.7888 9.17515 22.8331 9.19696C22.8774 9.21878 22.9256 9.23162 22.975 9.23474C23.0243 9.23787 23.0737 9.23122 23.1204 9.21518C23.1672 9.19913 23.2103 9.17401 23.2473 9.14125C23.2843 9.1085 23.3144 9.06875 23.336 9.02431C23.3576 8.97986 23.3702 8.93158 23.3731 8.88226C23.3759 8.83293 23.369 8.78352 23.3527 8.73687C23.2682 8.49096 23.1745 8.2445 23.0739 8.00426C23.055 7.95875 23.0272 7.91742 22.9923 7.88263C22.9573 7.84785 22.9159 7.82031 22.8703 7.80157C22.8247 7.78283 22.7758 7.77327 22.7265 7.77344C22.6772 7.77361 22.6284 7.78349 22.5829 7.80254C22.5375 7.82158 22.4962 7.84941 22.4615 7.88442C22.4268 7.91944 22.3993 7.96096 22.3806 8.0066C22.362 8.05224 22.3525 8.10112 22.3528 8.15042C22.3531 8.19973 22.363 8.2485 22.3822 8.29394Z" fill="#1D405C"/>
<path d="M23.0282 10.3991C23.0762 10.6377 23.1172 10.8819 23.1497 11.1247C23.1631 11.2232 23.2149 11.3123 23.2939 11.3725C23.373 11.4327 23.4726 11.4591 23.5711 11.4459C23.6696 11.4327 23.7588 11.381 23.8191 11.3021C23.8795 11.2232 23.9061 11.1236 23.8931 11.0251C23.8583 10.766 23.8147 10.5055 23.7634 10.2508C23.7537 10.2024 23.7346 10.1565 23.7072 10.1155C23.6797 10.0745 23.6445 10.0394 23.6034 10.0121C23.5624 9.98473 23.5163 9.96577 23.468 9.95626C23.4196 9.94675 23.3698 9.94687 23.3215 9.95662C23.2731 9.96637 23.2272 9.98556 23.1863 10.0131C23.1454 10.0406 23.1103 10.0759 23.0831 10.117C23.0558 10.1581 23.0369 10.2042 23.0275 10.2526C23.0181 10.301 23.0183 10.3508 23.0282 10.3991Z" fill="#1D405C"/>
<path d="M0.519853 10.754C0.617462 10.773 0.718649 10.7525 0.801161 10.697C0.883674 10.6415 0.940757 10.5555 0.959857 10.4579C1.00664 10.2187 1.06212 9.97758 1.12474 9.74119C1.13745 9.69357 1.14064 9.6439 1.13414 9.59504C1.12764 9.54618 1.11156 9.49908 1.08684 9.45644C1.06212 9.4138 1.02923 9.37645 0.99006 9.34653C0.950889 9.3166 0.906203 9.2947 0.858559 9.28206C0.810915 9.26943 0.761247 9.26631 0.712396 9.27288C0.663545 9.27946 0.61647 9.2956 0.573864 9.32039C0.531258 9.34518 0.493956 9.37812 0.464093 9.41733C0.43423 9.45655 0.412391 9.50127 0.399826 9.54893C0.332902 9.80125 0.273758 10.0587 0.223763 10.3139C0.204684 10.4116 0.22516 10.5128 0.280687 10.5953C0.336214 10.6778 0.422244 10.7349 0.519853 10.754Z" fill="#1D405C"/>
<path d="M1.10518 8.55077C1.1507 8.56965 1.19949 8.57936 1.24877 8.57934C1.29804 8.57932 1.34682 8.56957 1.39232 8.55065C1.43782 8.53173 1.47914 8.50402 1.5139 8.4691C1.54866 8.43418 1.57619 8.39274 1.5949 8.34716C1.68865 8.11992 1.79055 7.89397 1.89794 7.67607C1.9414 7.5869 1.94776 7.48414 1.91563 7.39029C1.8835 7.29644 1.8155 7.21914 1.72651 7.17531C1.63752 7.13148 1.53479 7.12469 1.4408 7.15643C1.34682 7.18817 1.26924 7.25585 1.22504 7.34465C1.11041 7.57756 1.00156 7.81853 0.901486 8.06115C0.863574 8.15309 0.863736 8.25632 0.901937 8.34814C0.940137 8.43997 1.01325 8.51285 1.10518 8.55077Z" fill="#1D405C"/>
<path d="M3.76337 4.80626C3.81276 4.80633 3.86167 4.79661 3.90727 4.77766C3.95287 4.75871 3.99427 4.7309 4.02906 4.69585C4.2009 4.52337 4.38126 4.35362 4.5652 4.19139C4.60213 4.15882 4.63229 4.1193 4.65395 4.07507C4.67561 4.03085 4.68834 3.98279 4.69143 3.93364C4.69451 3.8845 4.68789 3.83522 4.67193 3.78863C4.65598 3.74205 4.631 3.69906 4.59843 3.66213C4.56586 3.62519 4.52633 3.59503 4.48211 3.57337C4.43788 3.55172 4.38982 3.53898 4.34068 3.53589C4.29153 3.53281 4.24226 3.53943 4.19567 3.55539C4.14908 3.57135 4.10609 3.59632 4.06916 3.62889C3.87305 3.80193 3.68079 3.98284 3.49769 4.16667C3.44541 4.21918 3.40986 4.286 3.39552 4.35869C3.38118 4.43138 3.3887 4.5067 3.41712 4.57512C3.44554 4.64355 3.4936 4.70202 3.55523 4.74315C3.61685 4.78429 3.68928 4.80625 3.76337 4.80626Z" fill="#1D405C"/>
<path d="M7.52458 2.27713C7.57414 2.27712 7.62319 2.26722 7.66887 2.24801C7.8951 2.15353 8.12609 2.06601 8.35534 1.98764C8.44945 1.95551 8.52695 1.88732 8.57078 1.79805C8.61462 1.70879 8.62119 1.60576 8.58907 1.51165C8.55695 1.41754 8.48875 1.34004 8.39949 1.2962C8.31022 1.25237 8.2072 1.24579 8.11308 1.27792C7.86809 1.3616 7.62135 1.45498 7.37993 1.55587C7.29994 1.58929 7.23399 1.64939 7.1933 1.72594C7.15261 1.80249 7.13969 1.89077 7.15674 1.97577C7.17379 2.06077 7.21975 2.13724 7.28681 2.19218C7.35387 2.24712 7.43789 2.27713 7.52458 2.27713Z" fill="#1D405C"/>
<path d="M7.70514 23.034C7.47992 22.9409 7.25406 22.8388 7.03378 22.7304C6.98959 22.7085 6.94152 22.6955 6.89232 22.6922C6.84312 22.689 6.79375 22.6954 6.74705 22.7112C6.70034 22.7271 6.65722 22.7519 6.62015 22.7845C6.58307 22.817 6.55278 22.8565 6.53099 22.9007C6.50921 22.945 6.49637 22.9931 6.4932 23.0423C6.49004 23.0915 6.49661 23.1408 6.51255 23.1875C6.52848 23.2342 6.55347 23.2772 6.58607 23.3142C6.61867 23.3512 6.65825 23.3814 6.70254 23.4031C6.93738 23.5188 7.17834 23.6278 7.41857 23.7272C7.51064 23.7635 7.61325 23.7626 7.70466 23.7246C7.79608 23.6867 7.86914 23.6146 7.90839 23.5238C7.92721 23.4783 7.93688 23.4295 7.93685 23.3802C7.93682 23.331 7.92709 23.2822 7.90822 23.2368C7.88934 23.1913 7.86169 23.15 7.82685 23.1152C7.79201 23.0804 7.75065 23.0528 7.70514 23.034Z" fill="#1D405C"/>
<path d="M22.3748 6.59916C22.2441 6.37504 22.1038 6.15146 21.958 5.93503C21.9024 5.85255 21.8163 5.79551 21.7187 5.77647C21.6211 5.75743 21.52 5.77794 21.4375 5.8335C21.355 5.88905 21.298 5.9751 21.2789 6.07271C21.2599 6.17032 21.2804 6.27149 21.3359 6.35398C21.4727 6.55704 21.6043 6.7667 21.727 6.97709C21.7771 7.063 21.8593 7.12548 21.9555 7.15078C22.0516 7.17609 22.1539 7.16216 22.2398 7.11204C22.3258 7.06192 22.3882 6.97973 22.4135 6.88355C22.4388 6.78736 22.4249 6.68507 22.3748 6.59916Z" fill="#1D405C"/>
<path d="M21.8766 18.7782C21.794 18.7229 21.6927 18.7027 21.5952 18.722C21.4976 18.7413 21.4117 18.7985 21.3564 18.8811C21.22 19.0849 21.0755 19.2862 20.927 19.4793C20.8664 19.5582 20.8396 19.6579 20.8525 19.7565C20.8655 19.8552 20.917 19.9446 20.9959 20.0052C21.0751 20.0647 21.1746 20.0908 21.2728 20.078C21.3711 20.0651 21.4605 20.0143 21.5218 19.9364C21.68 19.7304 21.8341 19.5158 21.9795 19.2986C22.0349 19.216 22.0551 19.1147 22.0358 19.0171C22.0165 18.9195 21.9593 18.8336 21.8766 18.7782Z" fill="#1D405C"/>
<path d="M19.9565 20.5867C19.7841 20.7591 19.6034 20.9285 19.4196 21.09C19.3449 21.1556 19.2992 21.2482 19.2928 21.3475C19.2863 21.4467 19.3196 21.5445 19.3852 21.6192C19.4521 21.6917 19.5444 21.7357 19.6429 21.7421C19.7414 21.7485 19.8385 21.7168 19.9143 21.6536C20.1104 21.4815 20.3031 21.301 20.487 21.1169C20.5219 21.0821 20.5495 21.0408 20.5684 20.9953C20.5873 20.9497 20.597 20.901 20.597 20.8517C20.597 20.8024 20.5873 20.7536 20.5685 20.7081C20.5496 20.6626 20.522 20.6212 20.4871 20.5864C20.4523 20.5515 20.4109 20.5239 20.3654 20.5051C20.3198 20.4862 20.271 20.4765 20.2218 20.4766C20.1725 20.4766 20.1237 20.4863 20.0782 20.5052C20.0327 20.5241 19.9914 20.5518 19.9565 20.5867Z" fill="#1D405C"/>
<path d="M20.9987 4.6918C20.8257 4.49606 20.6447 4.30398 20.4603 4.12069C20.3897 4.05059 20.2942 4.01139 20.1947 4.01172C20.0953 4.01205 20 4.05187 19.9299 4.12243C19.8598 4.19299 19.8206 4.28851 19.8209 4.38798C19.8213 4.48744 19.8611 4.5827 19.9316 4.6528C20.1045 4.82455 20.2743 5.00474 20.4366 5.18839C20.5025 5.26242 20.5952 5.30729 20.6942 5.3132C20.7932 5.31911 20.8905 5.28556 20.9648 5.2199C21.0391 5.15424 21.0844 5.06182 21.0908 4.96285C21.0971 4.86388 21.064 4.76642 20.9987 4.6918Z" fill="#1D405C"/>
<path d="M24 12.5875C23.9994 12.488 23.9592 12.3929 23.8885 12.323C23.8177 12.2531 23.7221 12.2142 23.6226 12.2149C23.5231 12.2155 23.428 12.2556 23.3581 12.3264C23.2883 12.3971 23.2494 12.4928 23.25 12.5922L23.2501 12.6327C23.2501 12.8773 23.2421 13.1251 23.2264 13.3686C23.2232 13.4178 23.2297 13.467 23.2456 13.5137C23.2615 13.5603 23.2864 13.6033 23.3189 13.6403C23.3514 13.6773 23.3909 13.7076 23.4351 13.7293C23.4793 13.751 23.5273 13.7639 23.5765 13.767C23.6256 13.7702 23.6749 13.7637 23.7215 13.7478C23.7682 13.7319 23.8112 13.707 23.8482 13.6745C23.8852 13.642 23.9154 13.6025 23.9372 13.5583C23.9589 13.5141 23.9717 13.4661 23.9749 13.4169C23.9916 13.1573 24.0001 12.8934 24.0001 12.6327L24 12.5875Z" fill="#1D405C"/>
<path d="M23.4767 14.5307C23.4284 14.521 23.3787 14.521 23.3303 14.5306C23.282 14.5402 23.2361 14.5593 23.1951 14.5867C23.1542 14.6142 23.1191 14.6494 23.0918 14.6905C23.0646 14.7315 23.0457 14.7775 23.0363 14.8259C22.9889 15.0654 22.933 15.3064 22.87 15.5426C22.8443 15.6386 22.8579 15.741 22.9077 15.8271C22.9575 15.9132 23.0394 15.9759 23.1355 16.0016C23.2316 16.0261 23.3334 16.0119 23.4192 15.9623C23.5049 15.9126 23.5679 15.8314 23.5945 15.7359C23.6618 15.4842 23.7215 15.2267 23.772 14.9713C23.7815 14.923 23.7815 14.8732 23.7718 14.8249C23.7621 14.7766 23.7431 14.7307 23.7156 14.6898C23.6882 14.6489 23.653 14.6138 23.612 14.5865C23.571 14.5592 23.525 14.5402 23.4767 14.5307Z" fill="#1D405C"/>
<path d="M22.8872 16.7355C22.7953 16.6975 22.6921 16.6976 22.6002 16.7356C22.5084 16.7736 22.4354 16.8465 22.3972 16.9383C22.3033 17.1646 22.2011 17.3904 22.0929 17.6089C22.0488 17.698 22.042 17.801 22.0738 17.8953C22.1057 17.9895 22.1737 18.0672 22.2629 18.1113C22.352 18.1554 22.4551 18.1623 22.5493 18.1304C22.6435 18.0985 22.7212 18.0305 22.7653 17.9414C22.8807 17.7079 22.99 17.4671 23.09 17.2254C23.1089 17.1799 23.1186 17.1312 23.1186 17.0819C23.1186 17.0327 23.1089 16.9839 23.0901 16.9384C23.0713 16.8929 23.0436 16.8516 23.0088 16.8168C22.974 16.7819 22.9327 16.7543 22.8872 16.7355Z" fill="#1D405C"/>
<path d="M14.2047 23.6674C13.9666 23.7146 13.7222 23.7549 13.4785 23.7871C13.4296 23.7935 13.3825 23.8094 13.3398 23.834C13.2971 23.8586 13.2596 23.8914 13.2296 23.9305C13.1996 23.9696 13.1775 24.0142 13.1648 24.0618C13.152 24.1094 13.1488 24.1591 13.1552 24.2079C13.1616 24.2568 13.1776 24.3039 13.2023 24.3466C13.227 24.3892 13.2598 24.4266 13.2989 24.4566C13.3381 24.4866 13.3827 24.5085 13.4303 24.5212C13.478 24.5339 13.5276 24.5371 13.5765 24.5306C13.8363 24.4963 14.0968 24.4535 14.3506 24.4031C14.399 24.3936 14.445 24.3746 14.486 24.3473C14.527 24.32 14.5622 24.2848 14.5897 24.2439C14.6171 24.2029 14.6362 24.157 14.6458 24.1086C14.6555 24.0603 14.6555 24.0106 14.6459 23.9622C14.6363 23.9139 14.6173 23.8679 14.5899 23.8269C14.5626 23.7859 14.5274 23.7507 14.4864 23.7234C14.4454 23.696 14.3995 23.677 14.3511 23.6673C14.3028 23.6577 14.253 23.6578 14.2047 23.6674Z" fill="#1D405C"/>
<path d="M9.81584 23.6703C9.57661 23.6235 9.33547 23.5678 9.09907 23.505C9.05145 23.4922 9.00176 23.489 8.95287 23.4954C8.90398 23.5019 8.85684 23.5179 8.81416 23.5426C8.77147 23.5673 8.73407 23.6001 8.70411 23.6393C8.67415 23.6785 8.6522 23.7232 8.63953 23.7708C8.62687 23.8185 8.62373 23.8682 8.63029 23.917C8.63685 23.9659 8.653 24.013 8.67779 24.0556C8.70258 24.0983 8.73554 24.1356 8.77478 24.1655C8.81401 24.1953 8.85876 24.2172 8.90645 24.2297C9.15868 24.2967 9.41603 24.3563 9.67138 24.4064C9.71972 24.4159 9.76944 24.4158 9.81773 24.4061C9.86601 24.3963 9.9119 24.3772 9.95279 24.3497C9.99367 24.3222 10.0287 24.287 10.056 24.246C10.0833 24.2049 10.1022 24.1589 10.1117 24.1106C10.1211 24.0623 10.121 24.0126 10.1113 23.9643C10.1016 23.916 10.0824 23.8701 10.0549 23.8292C10.0275 23.7883 9.99221 23.7533 9.95119 23.726C9.91017 23.6987 9.86417 23.6798 9.81584 23.6703Z" fill="#1D405C"/>
<path d="M14.1639 1.59077C14.4024 1.63727 14.6437 1.69258 14.8812 1.75502C14.9124 1.76343 14.9446 1.76768 14.9769 1.76766C15.068 1.76757 15.156 1.73434 15.2244 1.67416C15.2928 1.61397 15.3369 1.53096 15.3486 1.44061C15.3602 1.35026 15.3386 1.25876 15.2877 1.18318C15.2369 1.10761 15.1602 1.05313 15.0722 1.02992C14.819 0.963087 14.5617 0.904128 14.3072 0.854689C14.2589 0.845187 14.2091 0.845315 14.1608 0.855065C14.1125 0.864815 14.0665 0.883996 14.0256 0.911511C13.9847 0.939025 13.9497 0.974334 13.9224 1.01542C13.8952 1.0565 13.8763 1.10255 13.8669 1.15093C13.8575 1.19931 13.8577 1.24908 13.8675 1.29738C13.8773 1.34568 13.8966 1.39157 13.9242 1.43242C13.9518 1.47328 13.9871 1.50829 14.0283 1.53546C14.0694 1.56263 14.1155 1.58143 14.1639 1.59077Z" fill="#1D405C"/>
<path d="M18.2536 21.9853C18.05 22.1219 17.84 22.2528 17.6297 22.3746C17.587 22.3993 17.5497 22.4321 17.5197 22.4712C17.4898 22.5103 17.4679 22.5549 17.4552 22.6025C17.4425 22.65 17.4393 22.6996 17.4458 22.7485C17.4523 22.7973 17.4683 22.8443 17.493 22.8869C17.5437 22.972 17.6257 23.0339 17.7214 23.0595C17.8171 23.085 17.919 23.0721 18.0054 23.0235C18.2299 22.8937 18.4538 22.754 18.6711 22.6086C18.7537 22.5533 18.811 22.4673 18.8303 22.3697C18.8496 22.2721 18.8293 22.1709 18.774 22.0882C18.7186 22.0056 18.6327 21.9483 18.5351 21.929C18.4375 21.9097 18.3362 21.93 18.2536 21.9853Z" fill="#1D405C"/>
<path d="M18.2233 3.26003C18.4259 3.3948 18.6276 3.53872 18.823 3.68759C18.902 3.7479 19.0018 3.77434 19.1004 3.76109C19.1989 3.74783 19.2882 3.69597 19.3485 3.61691C19.4088 3.53785 19.4352 3.43807 19.422 3.33951C19.4087 3.24096 19.3569 3.15171 19.2778 3.09139C19.0697 2.93264 18.8546 2.7792 18.6388 2.63564C18.556 2.58134 18.455 2.56199 18.358 2.58182C18.261 2.60164 18.1758 2.65904 18.1209 2.74148C18.066 2.82392 18.046 2.92472 18.0652 3.02187C18.0844 3.11901 18.1412 3.20463 18.2233 3.26003Z" fill="#1D405C"/>
<path d="M16.312 23.0287C16.0874 23.1221 15.8562 23.2093 15.6251 23.2878C15.5785 23.3037 15.5354 23.3285 15.4984 23.361C15.4614 23.3935 15.4311 23.4329 15.4094 23.4771C15.3876 23.5212 15.3747 23.5693 15.3715 23.6184C15.3683 23.6675 15.3748 23.7168 15.3906 23.7634C15.4065 23.8101 15.4313 23.8531 15.4638 23.8901C15.4963 23.9271 15.5357 23.9574 15.5799 23.9792C15.6241 24.0009 15.6721 24.0138 15.7212 24.017C15.7703 24.0202 15.8196 24.0137 15.8663 23.9979C16.1131 23.914 16.3599 23.821 16.5999 23.7212C16.6917 23.6831 16.7646 23.61 16.8026 23.518C16.8405 23.4261 16.8404 23.3229 16.8022 23.2311C16.764 23.1392 16.691 23.0663 16.599 23.0284C16.5071 22.9904 16.4039 22.9905 16.312 23.0287Z" fill="#1D405C"/>
<path d="M16.2759 2.22574C16.5011 2.31839 16.7272 2.42019 16.948 2.52823C16.9922 2.54996 17.0403 2.56276 17.0895 2.5659C17.1386 2.56904 17.188 2.56245 17.2346 2.54651C17.2812 2.53057 17.3243 2.50559 17.3612 2.47301C17.3982 2.44042 17.4284 2.40087 17.4501 2.35661C17.4717 2.31235 17.4845 2.26425 17.4875 2.21507C17.4906 2.16588 17.4839 2.11657 17.4679 2.06996C17.4519 2.02335 17.4269 1.98036 17.3943 1.94343C17.3616 1.9065 17.322 1.87637 17.2777 1.85476C17.0425 1.73959 16.8015 1.63101 16.5613 1.53213C16.5158 1.51339 16.467 1.5038 16.4178 1.50391C16.3685 1.50402 16.3198 1.51383 16.2743 1.53278C16.2288 1.55173 16.1876 1.57945 16.1528 1.61435C16.1181 1.64925 16.0905 1.69066 16.0718 1.7362C16.0531 1.78174 16.0435 1.83053 16.0436 1.87978C16.0437 1.92903 16.0535 1.97778 16.0725 2.02323C16.0914 2.06869 16.1191 2.10997 16.154 2.14472C16.1889 2.17946 16.2303 2.20699 16.2759 2.22574Z" fill="#1D405C"/>
<path d="M18.1861 20.1311C19.9367 18.3805 19.8778 15.5548 19.8744 15.4352C19.8717 15.3394 19.8325 15.2483 19.7647 15.1806C19.697 15.1129 19.6059 15.0737 19.5101 15.071C19.3907 15.0662 16.5648 15.0089 14.8142 16.7594C13.2835 18.2901 13.1362 20.6425 13.1256 21.2895L12.3751 22.04V15.7881L13.6563 14.5069C14.2524 14.4949 16.2963 14.3532 17.6335 13.016C19.1794 11.47 19.1274 8.97797 19.1244 8.87268C19.1217 8.77692 19.0825 8.68581 19.0147 8.61808C18.947 8.55035 18.8559 8.51113 18.7601 8.50848C18.6545 8.50317 16.1625 8.45355 14.6168 9.99952C13.2796 11.3367 13.138 13.3803 13.1261 13.9765L12.3751 14.7275V9.04886C12.8515 8.60152 14.4376 6.96053 14.4376 4.94524C14.4376 2.62454 12.3334 0.799166 12.2437 0.722626C12.1758 0.664657 12.0894 0.632812 12.0001 0.632812C11.9108 0.632813 11.8244 0.664657 11.7565 0.722626C11.6668 0.799166 9.56259 2.62454 9.56259 4.94524C9.56259 6.96053 11.1487 8.60152 11.6251 9.04885V14.7275L10.8741 13.9765C10.8622 13.3803 10.7206 11.3366 9.38342 9.99951C7.83782 8.45373 5.34409 8.50372 5.24009 8.50848C5.14433 8.51113 5.05322 8.55035 4.98547 8.61808C4.91772 8.68581 4.87848 8.77692 4.87581 8.87268C4.87278 8.97796 4.82078 11.47 6.36675 13.016C7.70392 14.3534 9.74789 14.4949 10.3439 14.5069L11.6251 15.7881V22.04L10.8746 21.2895C10.864 20.6425 10.7167 18.2901 9.18603 16.7594C7.43563 15.0089 4.60984 15.067 4.49009 15.071C4.39433 15.0737 4.30321 15.1129 4.23546 15.1806C4.16772 15.2483 4.12847 15.3394 4.1258 15.4352C4.12242 15.5548 4.06346 18.3805 5.81413 20.1311C7.34571 21.6628 9.69893 21.8092 10.3442 21.8197L11.6251 23.1006V24.2578C11.6251 24.3573 11.6646 24.4527 11.7349 24.523C11.8053 24.5933 11.9006 24.6328 12.0001 24.6328C12.0996 24.6328 12.1949 24.5933 12.2653 24.523C12.3356 24.4527 12.3751 24.3573 12.3751 24.2578V23.1006L13.656 21.8197C14.3014 21.8092 16.6546 21.6627 18.1861 20.1311ZM15.3444 17.2897C16.5174 16.1167 18.3345 15.8789 19.1136 15.8318C19.0664 16.6111 18.8287 18.4279 17.6558 19.6009C16.7206 20.536 15.3776 20.876 14.476 20.9996L14.5152 20.9604L14.5156 20.96L16.6074 18.8683C16.6774 18.7979 16.7167 18.7026 16.7165 18.6033C16.7164 18.5041 16.6769 18.4089 16.6067 18.3387C16.5365 18.2685 16.4413 18.229 16.3421 18.2289C16.2428 18.2287 16.1475 18.268 16.0771 18.338L13.9458 20.4692C14.0694 19.5676 14.4094 18.2248 15.3444 17.2897ZM15.1471 10.5298C16.1373 9.53955 17.6613 9.31928 18.3625 9.27112C18.3154 9.97169 18.0968 11.492 17.1032 12.4857C16.3409 13.248 15.2636 13.5533 14.4875 13.6757L16.2521 11.911C16.3221 11.8406 16.3613 11.7453 16.3612 11.646C16.3611 11.5468 16.3216 11.4516 16.2514 11.3814C16.1812 11.3112 16.086 11.2717 15.9868 11.2716C15.8875 11.2715 15.7922 11.3107 15.7218 11.3807L13.9854 13.1173L13.985 13.1176L13.9554 13.1472C14.0768 12.3722 14.3815 11.2954 15.1471 10.5298ZM10.0152 13.1176L10.0148 13.1173L8.27838 11.3807C8.20802 11.3106 8.11272 11.2713 8.01339 11.2714C7.91407 11.2715 7.81885 11.311 7.74861 11.3812C7.67838 11.4514 7.63888 11.5467 7.63879 11.646C7.6387 11.7453 7.67801 11.8406 7.74811 11.911L9.5127 13.6757C8.73655 13.5532 7.6593 13.2479 6.89703 12.4857C5.90725 11.4959 5.68679 9.97278 5.63845 9.27111C6.3403 9.31945 7.86337 9.5401 8.85315 10.5298C9.61542 11.2921 9.92063 12.3694 10.0431 13.1455L10.0152 13.1176ZM7.39278 18.8683L9.48456 20.96L9.48496 20.9604L9.52408 20.9996C8.62237 20.8759 7.27948 20.5359 6.34441 19.6009C5.17143 18.4279 4.93367 16.6109 4.88651 15.8318C5.666 15.8791 7.48287 16.1169 8.65575 17.2897C9.59087 18.2248 9.93085 19.5678 10.0545 20.4693L7.92306 18.338C7.85269 18.2679 7.75739 18.2286 7.65807 18.2287C7.55875 18.2288 7.46352 18.2683 7.39329 18.3385C7.32306 18.4087 7.28356 18.504 7.28347 18.6033C7.28337 18.7026 7.32269 18.7979 7.39278 18.8683ZM12.0001 4.77751C11.9006 4.77752 11.8053 4.81703 11.7349 4.88735C11.6646 4.95768 11.6251 5.05306 11.6251 5.15251V7.95486C11.0601 7.2901 10.3126 6.17839 10.3126 4.94524C10.3126 3.40422 11.4808 2.0507 12.0001 1.52536C12.5196 2.05088 13.6876 3.40422 13.6876 4.94524C13.6876 6.17834 12.9401 7.29011 12.3751 7.95484V5.15251C12.3751 5.05306 12.3356 4.95768 12.2653 4.88735C12.1949 4.81703 12.0996 4.77752 12.0001 4.77751Z" fill="#1D405C"/>
</svg>
