<svg width="24" height="24" viewBox="0 0 24 24" fill="none" xmlns="http://www.w3.org/2000/svg">
<path fill-rule="evenodd" clip-rule="evenodd" d="M9.875 5.625C7.52779 5.625 5.625 7.52779 5.625 9.875C5.625 12.2222 7.52779 14.125 9.875 14.125C12.2222 14.125 14.125 12.2222 14.125 9.875C14.125 7.52779 12.2222 5.625 9.875 5.625ZM3.5 9.875C3.5 6.35418 6.35418 3.5 9.875 3.5C13.3958 3.5 16.25 6.35418 16.25 9.875C16.25 11.2518 15.8135 12.5267 15.0714 13.5688L20.1888 18.6862C20.6037 19.1011 20.6037 19.7739 20.1888 20.1888C19.7739 20.6037 19.1011 20.6037 18.6862 20.1888L13.5688 15.0714C12.5267 15.8135 11.2518 16.25 9.875 16.25C6.35418 16.25 3.5 13.3958 3.5 9.875Z" fill="#212121" fill-opacity="0.6"/>
</svg>
