  <svg width="23" height="22" viewBox="0 0 23 22" fill="#fff" xmlns="http://www.w3.org/2000/svg">
            <path fillRule="evenodd" clipPath="evenodd" d="M11.6259 14.944C11.3576 14.6778 11.3559 14.2446 11.6221 13.9763L14.5389 11.0367L11.6221 8.0972C11.3559 7.82892 11.3576 7.39565 11.6259 7.12945C11.8942 6.86325 12.3275 6.86494 12.5936 7.13321L15.9887 10.5547C16.2534 10.8215 16.2534 11.2519 15.9887 11.5187L12.5936 14.9403C12.3275 15.2085 11.8942 15.2102 11.6259 14.944Z" fill="white" />
            <path fillRule="evenodd" clipPath="evenodd" d="M7.46228 11.0383C7.46228 10.6604 7.76865 10.354 8.14659 10.354H15.0311C15.4091 10.354 15.7154 10.6604 15.7154 11.0383C15.7154 11.4163 15.4091 11.7227 15.0311 11.7227H8.14659C7.76865 11.7227 7.46228 11.4163 7.46228 11.0383Z" fill="white" />
            <path fillRule="evenodd" clipPath="evenodd" d="M11.8248 19.9336C6.91336 19.9336 2.92883 15.9491 2.92883 11.0376C2.92883 6.12615 6.91336 2.14162 11.8248 2.14162C16.7363 2.14162 20.7208 6.12615 20.7208 11.0376C20.7208 15.9491 16.7363 19.9336 11.8248 19.9336ZM4.29745 11.0376C4.29745 15.1932 7.66922 18.565 11.8248 18.565C15.9804 18.565 19.3522 15.1932 19.3522 11.0376C19.3522 6.88201 15.9804 3.51024 11.8248 3.51024C7.66922 3.51024 4.29745 6.88201 4.29745 11.0376Z" fill="white" />
          </svg>