<svg width="21" height="20" viewBox="0 0 21 20" fill="none" xmlns="http://www.w3.org/2000/svg">
<g clip-path="url(#clip0_4009_5824)">
<g clip-path="url(#clip1_4009_5824)">
<g clip-path="url(#clip2_4009_5824)">
<path fill-rule="evenodd" clip-rule="evenodd" d="M1.37461 0.411071L19.8029 0.410156C20.1386 0.410139 20.4488 0.589694 20.6158 0.880875C20.783 1.17206 20.7816 1.53038 20.6122 1.82026L11.1198 18.067C10.9265 18.3977 10.5515 18.5776 10.1727 18.5212C9.79375 18.4649 9.48733 18.1837 9.39869 17.8111L7.17513 8.46172L0.712544 2.01175C0.444112 1.74384 0.363584 1.34057 0.508537 0.99011C0.65349 0.639655 0.995353 0.41109 1.37461 0.411071ZM9.10061 8.45604L10.6812 15.1018L17.2471 3.86407L9.10061 8.45604ZM16.2312 2.28489L3.64045 2.28551L8.18443 6.82062L16.2312 2.28489Z" fill="#2C3B29"/>
</g>
</g>
</g>
<defs>
<clipPath id="clip0_4009_5824">
<rect width="21" height="19.08" fill="white" transform="translate(0 0.0078125)"/>
</clipPath>
<clipPath id="clip1_4009_5824">
<rect width="21" height="19.08" fill="white" transform="translate(0 0.0078125)"/>
</clipPath>
<clipPath id="clip2_4009_5824">
<rect width="20.988" height="19.08" fill="white" transform="translate(0.00601196 0.0078125)"/>
</clipPath>
</defs>
</svg>
