<svg width="21" height="19" viewBox="0 0 21 19" fill="none" xmlns="http://www.w3.org/2000/svg">
<path fill-rule="evenodd" clip-rule="evenodd" d="M16.3027 0.5C16.6132 0.5 16.9195 0.57229 17.1972 0.711146C17.4749 0.850001 17.7164 1.05161 17.9027 1.3L20.5907 4.884C20.7253 5.06095 20.7971 5.2777 20.7947 5.5H20.8027V6.5C20.8028 7.47436 20.4472 8.41523 19.8027 9.146V16.5C19.8027 17.0304 19.592 17.5391 19.2169 17.9142C18.8419 18.2893 18.3332 18.5 17.8027 18.5H3.80273C3.2723 18.5 2.76359 18.2893 2.38852 17.9142C2.01345 17.5391 1.80273 17.0304 1.80273 16.5V9.146C1.15826 8.41523 0.802674 7.47436 0.802734 6.5V5.5H0.810734C0.808371 5.2777 0.880152 5.06095 1.01473 4.884L3.70273 1.3C3.88903 1.05161 4.1306 0.850001 4.40831 0.711146C4.68602 0.57229 4.99224 0.5 5.30273 0.5H16.3027ZM13.8027 9.146C13.4273 9.57158 12.9657 9.91242 12.4485 10.1459C11.9312 10.3793 11.3702 10.5 10.8027 10.5C10.2353 10.5 9.67426 10.3793 9.15701 10.1459C8.63977 9.91242 8.17812 9.57158 7.80273 9.146C7.34285 9.66898 6.75409 10.0625 6.09498 10.2874C5.43588 10.5123 4.72938 10.5608 4.04573 10.428L3.80273 10.374V16.5H17.8027V10.374L17.5597 10.428C16.876 10.5607 16.1694 10.512 15.5103 10.2869C14.8512 10.0619 14.2625 9.66916 13.8027 9.146ZM18.8027 6.5H14.8027C14.8004 7.01898 14.9999 7.51855 15.3591 7.89315C15.7183 8.26776 16.2091 8.48807 16.7277 8.50754C17.2463 8.52701 17.7522 8.34412 18.1385 7.99751C18.5247 7.65089 18.7611 7.1677 18.7977 6.65L18.8027 6.5ZM12.8027 6.5H8.80273C8.80041 7.01898 8.99992 7.51855 9.35911 7.89315C9.71831 8.26776 10.2091 8.48807 10.7277 8.50754C11.2463 8.52701 11.7522 8.34412 12.1385 7.99751C12.5247 7.65089 12.7611 7.1677 12.7977 6.65L12.8027 6.5ZM6.80273 6.5H2.80273C2.80041 7.01898 2.99992 7.51855 3.35911 7.89315C3.71831 8.26776 4.20905 8.48807 4.72767 8.50754C5.2463 8.52701 5.75218 8.34412 6.13845 7.99751C6.52472 7.65089 6.76113 7.1677 6.79773 6.65L6.80273 6.5ZM16.3027 2.5H5.30273L3.80273 4.5H17.8027L16.3027 2.5Z" fill="#7A7A7A"/>
</svg>
