<svg width="25" height="25" viewBox="0 0 25 25" fill="none" xmlns="http://www.w3.org/2000/svg">
<path d="M17.4523 4.40859C17.4523 3.44019 16.6644 2.65234 15.6963 2.65234C14.7282 2.65234 13.9404 3.44019 13.9404 4.40859C13.9404 5.377 14.7282 6.16454 15.6963 6.16454C16.6644 6.16454 17.4523 5.3767 17.4523 4.40859ZM15.6963 5.56267C15.0598 5.56267 14.5422 5.04477 14.5422 4.40859C14.5422 3.77212 15.0601 3.25421 15.6963 3.25421C16.3325 3.25421 16.8504 3.77212 16.8504 4.40859C16.8504 5.04477 16.3328 5.56267 15.6963 5.56267Z" fill="#1D405C"/>
<path d="M15.9973 1.82993V0.933746C15.9973 0.76733 15.8624 0.632812 15.6963 0.632812C15.5302 0.632812 15.3954 0.76733 15.3954 0.933746V1.82993C15.3954 1.99634 15.5302 2.13086 15.6963 2.13086C15.8624 2.13086 15.9973 1.99634 15.9973 1.82993Z" fill="#1D405C"/>
<path d="M17.5662 1.12923C17.4218 1.04708 17.2379 1.09764 17.1558 1.24178L16.7119 2.0203C16.6297 2.16445 16.68 2.34862 16.8244 2.43077C16.8714 2.45756 16.9225 2.4702 16.9731 2.4702C17.0778 2.4702 17.1795 2.41543 17.2349 2.31822L17.6788 1.53971C17.7609 1.39556 17.7107 1.21169 17.5662 1.12923Z" fill="#1D405C"/>
<path d="M17.6568 3.2475C17.7131 3.3423 17.8133 3.39496 17.916 3.39496C17.968 3.39496 18.021 3.38142 18.0691 3.35283L18.8401 2.89601C18.9831 2.81145 19.0303 2.62668 18.9457 2.48373C18.8612 2.34049 18.6767 2.29324 18.5335 2.37811L17.7625 2.83492C17.6195 2.91979 17.572 3.10456 17.6568 3.2475Z" fill="#1D405C"/>
<path d="M19.4724 4.34725C19.4694 4.18083 19.327 4.04 19.1663 4.05143L18.2702 4.06618C18.104 4.06889 17.9716 4.20581 17.9743 4.37223C17.9771 4.53684 18.1113 4.66805 18.2753 4.66805C18.2771 4.66805 18.2786 4.66805 18.2804 4.66805L19.1766 4.6533C19.3427 4.65059 19.4751 4.51337 19.4724 4.34725Z" fill="#1D405C"/>
<path d="M18.7439 6.38094C18.8504 6.38094 18.9533 6.32437 19.0081 6.22446C19.0881 6.07881 19.0346 5.89584 18.8889 5.81609L18.1032 5.38515C17.9569 5.3045 17.7746 5.35837 17.6945 5.50432C17.6145 5.64998 17.668 5.83294 17.8137 5.91269L18.5994 6.34363C18.6455 6.36891 18.6948 6.38094 18.7439 6.38094Z" fill="#1D405C"/>
<path d="M17.2605 7.52661C17.3174 7.6193 17.4161 7.67015 17.5172 7.67015C17.571 7.67015 17.6252 7.65571 17.6746 7.62562C17.816 7.53865 17.8602 7.35327 17.7733 7.21183L17.3038 6.44836C17.2165 6.30632 17.0312 6.26209 16.8897 6.34966C16.7483 6.43663 16.7041 6.622 16.791 6.76344L17.2605 7.52661Z" fill="#1D405C"/>
<path d="M15.7721 6.68838C15.606 6.6938 15.4757 6.83283 15.4814 6.99894L15.5112 7.89482C15.5166 8.05763 15.6502 8.18583 15.8118 8.18583C15.8151 8.18583 15.8184 8.18583 15.822 8.18553C15.9882 8.18011 16.1185 8.04108 16.1127 7.87496L16.0829 6.97908C16.0775 6.81297 15.9355 6.67514 15.7721 6.68838Z" fill="#1D405C"/>
<path d="M13.9364 7.75074C13.9809 7.77421 14.029 7.78534 14.0763 7.78534C14.1843 7.78534 14.2891 7.72696 14.3429 7.62465L14.7606 6.83169C14.838 6.68483 14.7817 6.50277 14.6345 6.42512C14.4877 6.34809 14.3056 6.40436 14.228 6.55122L13.8103 7.34418C13.7329 7.49133 13.7895 7.6731 13.9364 7.75074Z" fill="#1D405C"/>
<path d="M12.7667 6.58005C12.8221 6.58005 12.8781 6.5647 12.9283 6.5328L13.6837 6.05071C13.8236 5.96133 13.8648 5.77535 13.7755 5.63512C13.6864 5.49518 13.5001 5.45395 13.3599 5.54333L12.6045 6.02543C12.4646 6.1148 12.4234 6.30078 12.5128 6.44102C12.5702 6.531 12.6674 6.58005 12.7667 6.58005Z" fill="#1D405C"/>
<path d="M11.9245 4.59895C11.9323 4.75995 12.0653 4.88483 12.2248 4.88483C12.2299 4.88483 12.235 4.88483 12.2401 4.88453L13.1351 4.84C13.3012 4.83187 13.4291 4.69043 13.4207 4.52432C13.4126 4.3579 13.2739 4.2297 13.1053 4.23873L12.2104 4.28327C12.0439 4.29139 11.916 4.43283 11.9245 4.59895Z" fill="#1D405C"/>
<path d="M12.3258 2.7045C12.2509 2.85286 12.3105 3.03402 12.4585 3.10896L13.2581 3.51311C13.3018 3.53508 13.3481 3.54531 13.3935 3.54531C13.5034 3.54531 13.6093 3.48482 13.6626 3.3801C13.7375 3.23174 13.6779 3.05058 13.5299 2.97564L12.7303 2.57149C12.5813 2.49656 12.4011 2.55584 12.3258 2.7045Z" fill="#1D405C"/>
<path d="M14.2728 2.56028C14.3297 2.56028 14.3875 2.54403 14.4387 2.51032C14.5774 2.41854 14.6153 2.23166 14.5235 2.09323L14.0288 1.34601C13.937 1.20728 13.7504 1.16906 13.612 1.26115C13.4733 1.35293 13.4353 1.53981 13.5271 1.67824L14.0219 2.42546C14.0793 2.51303 14.1753 2.56028 14.2728 2.56028Z" fill="#1D405C"/>
<path d="M23.7611 13.7193C23.7178 13.7211 22.3425 13.7894 20.177 14.1755V13.4334C20.2347 13.4367 20.2982 13.4388 20.3684 13.4388C20.8095 13.4388 21.4626 13.3552 21.895 12.9227C22.5859 12.2318 22.3867 10.9778 22.378 10.9245C22.3569 10.7976 22.2576 10.6982 22.1306 10.6772C22.0936 10.6712 21.4653 10.5725 20.8547 10.7518C21.0081 10.4957 21.1228 10.1972 21.1228 9.87218C21.1228 8.89475 20.0951 8.14903 20.0515 8.11804C19.9468 8.0434 19.8062 8.0434 19.7015 8.11804C19.6579 8.14933 18.6302 8.89475 18.6302 9.87218C18.6302 10.1981 18.7454 10.4972 18.8992 10.7536C18.2868 10.5715 17.6545 10.6709 17.6175 10.6772C17.4905 10.6982 17.3912 10.7976 17.3702 10.9245C17.3614 10.9778 17.1622 12.2318 17.8529 12.9227C18.2856 13.3552 18.9383 13.4388 19.3795 13.4388C19.4517 13.4388 19.5164 13.4364 19.5754 13.4331V14.2875C18.2338 14.5469 16.641 14.9218 14.9031 15.4617C14.0397 15.041 13.1827 14.6658 12.341 14.3284V13.4548C12.3987 13.4581 12.4622 13.4602 12.5324 13.4602C12.9732 13.4602 13.6265 13.3766 14.059 12.9441C14.7499 12.2532 14.5507 10.9992 14.5417 10.9459C14.5206 10.8189 14.4213 10.7196 14.2943 10.6985C14.257 10.6922 13.629 10.5935 13.0187 10.7729C13.1718 10.5168 13.2865 10.2186 13.2865 9.89354C13.2865 8.91611 12.2588 8.1704 12.2152 8.1394C12.1104 8.06477 11.9699 8.06477 11.8652 8.1394C11.8215 8.1707 10.7939 8.91611 10.7939 9.89354C10.7939 10.2195 10.9091 10.5186 11.0629 10.775C10.4508 10.5929 9.81853 10.6922 9.78091 10.6982C9.65392 10.7193 9.55461 10.8186 9.53355 10.9456C9.52482 10.9989 9.3256 12.2529 10.0165 12.9438C10.449 13.3763 11.102 13.4599 11.5432 13.4599C11.6154 13.4599 11.6801 13.4575 11.7391 13.4542V14.0931C8.98645 13.0413 6.43483 12.4075 4.44385 12.029V11.3281C4.50163 11.3314 4.56543 11.3335 4.63555 11.3335C5.07672 11.3335 5.72944 11.2499 6.16158 10.8174C6.85253 10.1265 6.65331 8.87218 6.64428 8.81921C6.62322 8.69222 6.52361 8.59291 6.39691 8.57184C6.3596 8.56583 5.73155 8.46712 5.12095 8.64678C5.27443 8.39068 5.38909 8.09216 5.38909 7.76715C5.38909 6.79032 4.3614 6.044 4.31776 6.013C4.21304 5.93837 4.0725 5.93837 3.96778 6.013C3.92384 6.0443 2.89645 6.79032 2.89645 7.76715C2.89645 8.09306 3.01171 8.39249 3.16579 8.64888C2.55369 8.46682 1.92143 8.56613 1.88381 8.57214C1.75712 8.59321 1.65751 8.69252 1.63644 8.81951C1.62772 8.87248 1.4282 10.1268 2.11914 10.8177C2.55158 11.2502 3.20401 11.3338 3.64518 11.3338C3.7177 11.3338 3.7824 11.3314 3.84169 11.3281V11.9191C1.70114 11.5445 0.344233 11.4798 0.313538 11.4786C0.151636 11.4725 0.0074888 11.6001 0.00026639 11.7666C-0.00665509 11.9327 0.122144 12.0729 0.28826 12.0798C0.355669 12.0828 6.92084 12.3985 14.0668 15.7308C13.1201 16.0461 12.1372 16.4112 11.1342 16.8319C6.84019 14.9823 2.89645 14.174 0.342127 13.8222C0.179021 13.7985 0.0255448 13.9143 0.00297474 14.0792C-0.0195953 14.2438 0.0953614 14.3958 0.259972 14.4184C2.67226 14.7509 6.34154 15.4981 10.3668 17.1629C9.50616 17.5454 8.63375 17.9706 7.75984 18.4422C5.38969 17.5147 2.89976 16.7946 0.358377 16.3022C0.194369 16.2703 0.0372811 16.3775 0.00568309 16.5403C-0.0259149 16.7034 0.0809165 16.8614 0.244023 16.893C2.58258 17.3462 4.87539 17.9971 7.0704 18.8247C6.30393 19.2598 5.53835 19.7314 4.78 20.2433C3.35267 19.7211 1.87087 19.2682 0.373424 18.8981C0.212726 18.8587 0.0490176 18.9565 0.00929432 19.1178C-0.0307299 19.2791 0.0679764 19.4422 0.229277 19.4822C1.56572 19.8126 2.88712 20.2123 4.1694 20.6661C2.76284 21.6616 1.38817 22.7976 0.0887408 24.0973C-0.0289243 24.215 -0.0289243 24.4052 0.0887408 24.5228C0.147423 24.5815 0.224462 24.611 0.301501 24.611C0.37854 24.611 0.455579 24.5815 0.514261 24.5228C10.0265 15.0106 23.6503 14.3269 23.787 14.3212C23.9531 14.3143 24.0819 14.174 24.075 14.0079C24.0671 13.8412 23.9302 13.7043 23.7611 13.7193ZM21.8044 11.2486C21.8207 11.5728 21.799 12.1674 21.4692 12.4972C21.1577 12.8081 20.582 12.8508 20.2224 12.8343C20.2062 12.5102 20.2278 11.9155 20.5576 11.5857C20.8691 11.2745 21.4439 11.2315 21.8044 11.2486ZM19.8748 8.7524C20.1153 8.96998 20.5206 9.40573 20.5206 9.87248C20.5206 10.3127 20.1454 10.7497 19.8772 10.9926C19.6368 10.775 19.2314 10.3392 19.2314 9.87248C19.2314 9.43221 19.6067 8.99526 19.8748 8.7524ZM19.5263 12.8343C19.1655 12.8538 18.5898 12.809 18.2781 12.4975C17.9663 12.1858 17.923 11.6101 17.941 11.2493C18.3022 11.2291 18.8775 11.2742 19.1893 11.586C19.5011 11.8978 19.5444 12.4734 19.5263 12.8343ZM13.9681 11.2703C13.9844 11.5944 13.9627 12.1891 13.6329 12.5189C13.3211 12.8304 12.7466 12.8758 12.3846 12.8556C12.3665 12.4948 12.4096 11.9191 12.7216 11.6074C13.0328 11.2962 13.6073 11.2538 13.9681 11.2703ZM12.0385 8.77407C12.279 8.99165 12.6843 9.4274 12.6843 9.89415C12.6843 10.3344 12.3091 10.7714 12.0409 11.0142C11.8005 10.7966 11.3951 10.3609 11.3951 9.89415C11.3951 9.45388 11.7704 9.01662 12.0385 8.77407ZM11.69 12.8556C11.3289 12.8755 10.7535 12.8304 10.4418 12.5189C10.13 12.2071 10.0867 11.6314 10.1047 11.2706C10.4667 11.2508 11.0415 11.2956 11.353 11.6074C11.6648 11.9191 11.7081 12.4948 11.69 12.8556ZM6.07281 9.14392C6.09086 9.50474 6.04783 10.0804 5.73576 10.3922C5.42369 10.704 4.84981 10.7488 4.48749 10.7289C4.46943 10.3681 4.51247 9.79273 4.82453 9.48096C5.1366 9.1692 5.71199 9.12496 6.07281 9.14392ZM4.14232 6.64647C4.41045 6.88902 4.78692 7.32658 4.78692 7.76745C4.78692 8.20862 4.41075 8.64617 4.14232 8.88873C3.87419 8.64617 3.49772 8.20862 3.49772 7.76745C3.49802 7.32658 3.87419 6.88902 4.14232 6.64647ZM3.79293 10.7292C3.43302 10.7485 2.85643 10.7043 2.54466 10.3925C2.23289 10.0807 2.18956 9.50504 2.20762 9.14422C2.56783 9.12556 3.14412 9.1695 3.45589 9.48127C3.76766 9.79273 3.81099 10.3684 3.79293 10.7292Z" fill="#1D405C"/>
<path d="M23.7324 16.062C19.5539 16.6379 11.5102 18.445 4.58966 24.0758C4.46056 24.1808 4.4413 24.3704 4.54603 24.4989C4.60561 24.5721 4.69228 24.61 4.77955 24.61C4.84636 24.61 4.91347 24.588 4.96914 24.5423C11.7763 19.0042 19.698 17.2254 23.8145 16.6578C23.9791 16.6352 24.0941 16.4833 24.0715 16.3187C24.0486 16.154 23.8955 16.037 23.7324 16.062Z" fill="#1D405C"/>
<path d="M24.0692 18.7788C24.0376 18.6157 23.8793 18.5089 23.7165 18.5408C20.1336 19.2353 14.7884 20.7557 9.67107 24.0548C9.53143 24.1451 9.49111 24.3314 9.58139 24.471C9.63887 24.5604 9.73577 24.6088 9.83447 24.6088C9.89045 24.6088 9.94702 24.5932 9.99728 24.561C15.034 21.3139 20.3 19.8161 23.8312 19.1315C23.994 19.0999 24.1008 18.9419 24.0692 18.7788Z" fill="#1D405C"/>
<path d="M24.0659 21.3574C24.0259 21.1961 23.8616 21.098 23.7015 21.1377C20.8354 21.8464 18.0984 22.8305 15.5666 24.0622C15.4171 24.135 15.3551 24.315 15.4276 24.4646C15.4797 24.5714 15.5868 24.6337 15.6984 24.6337C15.7424 24.6337 15.7872 24.624 15.8299 24.6033C18.3238 23.3902 21.0208 22.4206 23.8459 21.7218C24.0072 21.6818 24.1056 21.5187 24.0659 21.3574Z" fill="#1D405C"/>
</svg>
